<?xml version="1.0" encoding="UTF-8" standalone="no"?>
<svg
   xmlns:dc="http://purl.org/dc/elements/1.1/"
   xmlns:cc="http://creativecommons.org/ns#"
   xmlns:rdf="http://www.w3.org/1999/02/22-rdf-syntax-ns#"
   xmlns:svg="http://www.w3.org/2000/svg"
   xmlns="http://www.w3.org/2000/svg"
   version="1.1"
   id="svg2"
   xml:space="preserve"
   width="400"
   height="400"
   viewBox="0 0 400 400"><metadata
     id="metadata8"><rdf:RDF><cc:Work
         rdf:about=""><dc:format>image/svg+xml</dc:format><dc:type
           rdf:resource="http://purl.org/dc/dcmitype/StillImage" /><dc:title></dc:title></cc:Work></rdf:RDF></metadata><defs
     id="defs6"><clipPath
       clipPathUnits="userSpaceOnUse"
       id="clipPath18"><path
         d="M 0,1.2207e-4 H 720 V 540.00012 H 0 Z"
         id="path16"
         style="clip-rule:evenodd" /></clipPath><clipPath
       clipPathUnits="userSpaceOnUse"
       id="clipPath28"><path
         d="M 1.0729e-5,0 H 720.00001 V 540 H 1.0729e-5 Z"
         id="path26"
         style="clip-rule:evenodd" /></clipPath><clipPath
       clipPathUnits="userSpaceOnUse"
       id="clipPath40"><path
         d="M 1.0729e-5,0 H 720.00001 V 540 H 1.0729e-5 Z"
         id="path38"
         style="clip-rule:evenodd" /></clipPath><clipPath
       clipPathUnits="userSpaceOnUse"
       id="clipPath52"><path
         d="M 1.0729e-5,0 H 720.00001 V 540 H 1.0729e-5 Z"
         id="path50"
         style="clip-rule:evenodd" /></clipPath><clipPath
       clipPathUnits="userSpaceOnUse"
       id="clipPath64"><path
         d="M 1.0729e-5,0 H 720.00001 V 540 H 1.0729e-5 Z"
         id="path62"
         style="clip-rule:evenodd" /></clipPath><clipPath
       clipPathUnits="userSpaceOnUse"
       id="clipPath76"><path
         d="M 1.0729e-5,0 H 720.00001 V 540 H 1.0729e-5 Z"
         id="path74"
         style="clip-rule:evenodd" /></clipPath><clipPath
       clipPathUnits="userSpaceOnUse"
       id="clipPath88"><path
         d="M 1.0729e-5,0 H 720.00001 V 540 H 1.0729e-5 Z"
         id="path86"
         style="clip-rule:evenodd" /></clipPath><clipPath
       clipPathUnits="userSpaceOnUse"
       id="clipPath100"><path
         d="M 1.0729e-5,0 H 720.00001 V 540 H 1.0729e-5 Z"
         id="path98"
         style="clip-rule:evenodd" /></clipPath><clipPath
       clipPathUnits="userSpaceOnUse"
       id="clipPath112"><path
         d="M 1.0729e-5,0 H 720.00001 V 540 H 1.0729e-5 Z"
         id="path110"
         style="clip-rule:evenodd" /></clipPath><clipPath
       clipPathUnits="userSpaceOnUse"
       id="clipPath124"><path
         d="M 1.0729e-5,0 H 720.00001 V 540 H 1.0729e-5 Z"
         id="path122"
         style="clip-rule:evenodd" /></clipPath><clipPath
       clipPathUnits="userSpaceOnUse"
       id="clipPath136"><path
         d="M 1.0729e-5,0 H 720.00001 V 540 H 1.0729e-5 Z"
         id="path134"
         style="clip-rule:evenodd" /></clipPath><clipPath
       clipPathUnits="userSpaceOnUse"
       id="clipPath148"><path
         d="M 1.0729e-5,0 H 720.00001 V 540 H 1.0729e-5 Z"
         id="path146"
         style="clip-rule:evenodd" /></clipPath><clipPath
       clipPathUnits="userSpaceOnUse"
       id="clipPath160"><path
         d="M 1.0729e-5,0 H 720.00001 V 540 H 1.0729e-5 Z"
         id="path158"
         style="clip-rule:evenodd" /></clipPath><clipPath
       clipPathUnits="userSpaceOnUse"
       id="clipPath172"><path
         d="M 1.0729e-5,0 H 720.00001 V 540 H 1.0729e-5 Z"
         id="path170"
         style="clip-rule:evenodd" /></clipPath><clipPath
       clipPathUnits="userSpaceOnUse"
       id="clipPath184"><path
         d="M 1.0729e-5,0 H 720.00001 V 540 H 1.0729e-5 Z"
         id="path182"
         style="clip-rule:evenodd" /></clipPath><clipPath
       clipPathUnits="userSpaceOnUse"
       id="clipPath196"><path
         d="M 1.0729e-5,0 H 720.00001 V 540 H 1.0729e-5 Z"
         id="path194"
         style="clip-rule:evenodd" /></clipPath><clipPath
       clipPathUnits="userSpaceOnUse"
       id="clipPath208"><path
         d="M 1.0729e-5,0 H 720.00001 V 540 H 1.0729e-5 Z"
         id="path206"
         style="clip-rule:evenodd" /></clipPath><clipPath
       clipPathUnits="userSpaceOnUse"
       id="clipPath220"><path
         d="M 1.0729e-5,0 H 720.00001 V 540 H 1.0729e-5 Z"
         id="path218"
         style="clip-rule:evenodd" /></clipPath><clipPath
       clipPathUnits="userSpaceOnUse"
       id="clipPath232"><path
         d="M 1.0729e-5,0 H 720.00001 V 540 H 1.0729e-5 Z"
         id="path230"
         style="clip-rule:evenodd" /></clipPath><clipPath
       clipPathUnits="userSpaceOnUse"
       id="clipPath244"><path
         d="M 1.0729e-5,0 H 720.00001 V 540 H 1.0729e-5 Z"
         id="path242"
         style="clip-rule:evenodd" /></clipPath><clipPath
       clipPathUnits="userSpaceOnUse"
       id="clipPath256"><path
         d="M 1.0729e-5,0 H 720.00001 V 540 H 1.0729e-5 Z"
         id="path254"
         style="clip-rule:evenodd" /></clipPath><clipPath
       clipPathUnits="userSpaceOnUse"
       id="clipPath268"><path
         d="M 1.0729e-5,0 H 720.00001 V 540 H 1.0729e-5 Z"
         id="path266"
         style="clip-rule:evenodd" /></clipPath><clipPath
       clipPathUnits="userSpaceOnUse"
       id="clipPath280"><path
         d="M 1.0729e-5,0 H 720.00001 V 540 H 1.0729e-5 Z"
         id="path278"
         style="clip-rule:evenodd" /></clipPath><clipPath
       clipPathUnits="userSpaceOnUse"
       id="clipPath292"><path
         d="M 1.0729e-5,0 H 720.00001 V 540 H 1.0729e-5 Z"
         id="path290"
         style="clip-rule:evenodd" /></clipPath><clipPath
       clipPathUnits="userSpaceOnUse"
       id="clipPath304"><path
         d="M 1.0729e-5,0 H 720.00001 V 540 H 1.0729e-5 Z"
         id="path302"
         style="clip-rule:evenodd" /></clipPath><clipPath
       clipPathUnits="userSpaceOnUse"
       id="clipPath316"><path
         d="M 1.0729e-5,0 H 720.00001 V 540 H 1.0729e-5 Z"
         id="path314"
         style="clip-rule:evenodd" /></clipPath><clipPath
       clipPathUnits="userSpaceOnUse"
       id="clipPath328"><path
         d="M 1.0729e-5,0 H 720.00001 V 540 H 1.0729e-5 Z"
         id="path326"
         style="clip-rule:evenodd" /></clipPath><clipPath
       clipPathUnits="userSpaceOnUse"
       id="clipPath340"><path
         d="M 1.0729e-5,0 H 720.00001 V 540 H 1.0729e-5 Z"
         id="path338"
         style="clip-rule:evenodd" /></clipPath><clipPath
       clipPathUnits="userSpaceOnUse"
       id="clipPath354"><path
         d="M 1.0729e-5,0 H 720.00001 V 540 H 1.0729e-5 Z"
         id="path352"
         style="clip-rule:evenodd" /></clipPath><clipPath
       clipPathUnits="userSpaceOnUse"
       id="clipPath368"><path
         d="M 1.0729e-5,0 H 720.00001 V 540 H 1.0729e-5 Z"
         id="path366"
         style="clip-rule:evenodd" /></clipPath><clipPath
       clipPathUnits="userSpaceOnUse"
       id="clipPath384"><path
         d="M 1.0729e-5,0 H 720.00001 V 540 H 1.0729e-5 Z"
         id="path382"
         style="clip-rule:evenodd" /></clipPath><clipPath
       clipPathUnits="userSpaceOnUse"
       id="clipPath400"><path
         d="M 1.0729e-5,0 H 720.00001 V 540 H 1.0729e-5 Z"
         id="path398"
         style="clip-rule:evenodd" /></clipPath><clipPath
       clipPathUnits="userSpaceOnUse"
       id="clipPath414"><path
         d="M 1.0729e-5,0 H 720.00001 V 540 H 1.0729e-5 Z"
         id="path412"
         style="clip-rule:evenodd" /></clipPath><clipPath
       clipPathUnits="userSpaceOnUse"
       id="clipPath430"><path
         d="M 1.0729e-5,0 H 720.00001 V 540 H 1.0729e-5 Z"
         id="path428"
         style="clip-rule:evenodd" /></clipPath><clipPath
       clipPathUnits="userSpaceOnUse"
       id="clipPath444"><path
         d="M 1.0729e-5,0 H 720.00001 V 540 H 1.0729e-5 Z"
         id="path442"
         style="clip-rule:evenodd" /></clipPath><clipPath
       clipPathUnits="userSpaceOnUse"
       id="clipPath460"><path
         d="M 1.0729e-5,0 H 720.00001 V 540 H 1.0729e-5 Z"
         id="path458"
         style="clip-rule:evenodd" /></clipPath><clipPath
       clipPathUnits="userSpaceOnUse"
       id="clipPath492"><path
         d="M 1.0729e-5,0 H 720.00001 V 540 H 1.0729e-5 Z"
         id="path490"
         style="clip-rule:evenodd" /></clipPath><clipPath
       clipPathUnits="userSpaceOnUse"
       id="clipPath504"><path
         d="M -2.545e-6,540 H 720 V 1.2207e-4 H -2.223e-5"
         id="path502"
         style="clip-rule:evenodd" /></clipPath><clipPath
       clipPathUnits="userSpaceOnUse"
       id="clipPath514"><path
         d="M 9.746e-6,540 H 720 V 1.2207e-4 H -9.9390001e-6"
         id="path512"
         style="clip-rule:evenodd" /></clipPath><clipPath
       clipPathUnits="userSpaceOnUse"
       id="clipPath526"><path
         d="M 1.0729e-5,0 H 720.00001 V 540 H 1.0729e-5 Z"
         id="path524"
         style="clip-rule:evenodd" /></clipPath><clipPath
       clipPathUnits="userSpaceOnUse"
       id="clipPath538"><path
         d="M 1.0729e-5,0 H 720.00001 V 540 H 1.0729e-5 Z"
         id="path536"
         style="clip-rule:evenodd" /></clipPath><clipPath
       clipPathUnits="userSpaceOnUse"
       id="clipPath550"><path
         d="M 1.0729e-5,0 H 720.00001 V 540 H 1.0729e-5 Z"
         id="path548"
         style="clip-rule:evenodd" /></clipPath><clipPath
       clipPathUnits="userSpaceOnUse"
       id="clipPath562"><path
         d="M 1.0729e-5,0 H 720.00001 V 540 H 1.0729e-5 Z"
         id="path560"
         style="clip-rule:evenodd" /></clipPath><clipPath
       clipPathUnits="userSpaceOnUse"
       id="clipPath574"><path
         d="M 1.0729e-5,0 H 720.00001 V 540 H 1.0729e-5 Z"
         id="path572"
         style="clip-rule:evenodd" /></clipPath><clipPath
       clipPathUnits="userSpaceOnUse"
       id="clipPath586"><path
         d="M 1.0729e-5,0 H 720.00001 V 540 H 1.0729e-5 Z"
         id="path584"
         style="clip-rule:evenodd" /></clipPath><clipPath
       clipPathUnits="userSpaceOnUse"
       id="clipPath598"><path
         d="M 1.0729e-5,0 H 720.00001 V 540 H 1.0729e-5 Z"
         id="path596"
         style="clip-rule:evenodd" /></clipPath><clipPath
       clipPathUnits="userSpaceOnUse"
       id="clipPath610"><path
         d="M -9.906e-6,540 H 720 V 0 L -1.9748e-5,6.1035e-5"
         id="path608"
         style="clip-rule:evenodd" /></clipPath><clipPath
       clipPathUnits="userSpaceOnUse"
       id="clipPath622"><path
         d="M 1.0729e-5,0 H 720.00001 V 540 H 1.0729e-5 Z"
         id="path620"
         style="clip-rule:evenodd" /></clipPath><clipPath
       clipPathUnits="userSpaceOnUse"
       id="clipPath634"><path
         d="M 1.0729e-5,0 H 720.00001 V 540 H 1.0729e-5 Z"
         id="path632"
         style="clip-rule:evenodd" /></clipPath><clipPath
       clipPathUnits="userSpaceOnUse"
       id="clipPath646"><path
         d="M 1.0729e-5,0 H 720.00001 V 540 H 1.0729e-5 Z"
         id="path644"
         style="clip-rule:evenodd" /></clipPath><clipPath
       clipPathUnits="userSpaceOnUse"
       id="clipPath658"><path
         d="M 1.0729e-5,0 H 720.00001 V 540 H 1.0729e-5 Z"
         id="path656"
         style="clip-rule:evenodd" /></clipPath><clipPath
       clipPathUnits="userSpaceOnUse"
       id="clipPath670"><path
         d="M 1.0729e-5,0 H 720.00001 V 540 H 1.0729e-5 Z"
         id="path668"
         style="clip-rule:evenodd" /></clipPath><clipPath
       clipPathUnits="userSpaceOnUse"
       id="clipPath682"><path
         d="M 1.0729e-5,0 H 720.00001 V 540 H 1.0729e-5 Z"
         id="path680"
         style="clip-rule:evenodd" /></clipPath><clipPath
       clipPathUnits="userSpaceOnUse"
       id="clipPath694"><path
         d="M 1.0729e-5,0 H 720.00001 V 540 H 1.0729e-5 Z"
         id="path692"
         style="clip-rule:evenodd" /></clipPath><clipPath
       clipPathUnits="userSpaceOnUse"
       id="clipPath706"><path
         d="M 1.0729e-5,0 H 720.00001 V 540 H 1.0729e-5 Z"
         id="path704"
         style="clip-rule:evenodd" /></clipPath><clipPath
       clipPathUnits="userSpaceOnUse"
       id="clipPath718"><path
         d="M 1.0729e-5,0 H 720.00001 V 540 H 1.0729e-5 Z"
         id="path716"
         style="clip-rule:evenodd" /></clipPath><clipPath
       clipPathUnits="userSpaceOnUse"
       id="clipPath730"><path
         d="M 1.0729e-5,0 H 720.00001 V 540 H 1.0729e-5 Z"
         id="path728"
         style="clip-rule:evenodd" /></clipPath><clipPath
       clipPathUnits="userSpaceOnUse"
       id="clipPath742"><path
         d="M 1.0729e-5,0 H 720.00001 V 540 H 1.0729e-5 Z"
         id="path740"
         style="clip-rule:evenodd" /></clipPath><clipPath
       clipPathUnits="userSpaceOnUse"
       id="clipPath754"><path
         d="M 1.0729e-5,0 H 720.00001 V 540 H 1.0729e-5 Z"
         id="path752"
         style="clip-rule:evenodd" /></clipPath><clipPath
       clipPathUnits="userSpaceOnUse"
       id="clipPath766"><path
         d="M 1.0729e-5,0 H 720.00001 V 540 H 1.0729e-5 Z"
         id="path764"
         style="clip-rule:evenodd" /></clipPath><clipPath
       clipPathUnits="userSpaceOnUse"
       id="clipPath778"><path
         d="M 1.0729e-5,0 H 720.00001 V 540 H 1.0729e-5 Z"
         id="path776"
         style="clip-rule:evenodd" /></clipPath><clipPath
       clipPathUnits="userSpaceOnUse"
       id="clipPath790"><path
         d="M 1.0729e-5,0 H 720.00001 V 540 H 1.0729e-5 Z"
         id="path788"
         style="clip-rule:evenodd" /></clipPath><clipPath
       clipPathUnits="userSpaceOnUse"
       id="clipPath802"><path
         d="M 1.0729e-5,0 H 720.00001 V 540 H 1.0729e-5 Z"
         id="path800"
         style="clip-rule:evenodd" /></clipPath><clipPath
       clipPathUnits="userSpaceOnUse"
       id="clipPath814"><path
         d="M 1.0729e-5,0 H 720.00001 V 540 H 1.0729e-5 Z"
         id="path812"
         style="clip-rule:evenodd" /></clipPath><clipPath
       clipPathUnits="userSpaceOnUse"
       id="clipPath826"><path
         d="M 1.0729e-5,0 H 720.00001 V 540 H 1.0729e-5 Z"
         id="path824"
         style="clip-rule:evenodd" /></clipPath><clipPath
       clipPathUnits="userSpaceOnUse"
       id="clipPath838"><path
         d="M 1.0729e-5,0 H 720.00001 V 540 H 1.0729e-5 Z"
         id="path836"
         style="clip-rule:evenodd" /></clipPath><clipPath
       clipPathUnits="userSpaceOnUse"
       id="clipPath850"><path
         d="M 1.0729e-5,0 H 720.00001 V 540 H 1.0729e-5 Z"
         id="path848"
         style="clip-rule:evenodd" /></clipPath><clipPath
       clipPathUnits="userSpaceOnUse"
       id="clipPath862"><path
         d="M 1.0729e-5,0 H 720.00001 V 540 H 1.0729e-5 Z"
         id="path860"
         style="clip-rule:evenodd" /></clipPath><clipPath
       clipPathUnits="userSpaceOnUse"
       id="clipPath874"><path
         d="M 1.0729e-5,0 H 720.00001 V 540 H 1.0729e-5 Z"
         id="path872"
         style="clip-rule:evenodd" /></clipPath><clipPath
       clipPathUnits="userSpaceOnUse"
       id="clipPath886"><path
         d="M 1.0729e-5,0 H 720.00001 V 540 H 1.0729e-5 Z"
         id="path884"
         style="clip-rule:evenodd" /></clipPath><clipPath
       clipPathUnits="userSpaceOnUse"
       id="clipPath898"><path
         d="M 1.0729e-5,0 H 720.00001 V 540 H 1.0729e-5 Z"
         id="path896"
         style="clip-rule:evenodd" /></clipPath><clipPath
       clipPathUnits="userSpaceOnUse"
       id="clipPath910"><path
         d="M 1.0729e-5,0 H 720.00001 V 540 H 1.0729e-5 Z"
         id="path908"
         style="clip-rule:evenodd" /></clipPath><clipPath
       clipPathUnits="userSpaceOnUse"
       id="clipPath922"><path
         d="M 1.0729e-5,0 H 720.00001 V 540 H 1.0729e-5 Z"
         id="path920"
         style="clip-rule:evenodd" /></clipPath><clipPath
       clipPathUnits="userSpaceOnUse"
       id="clipPath934"><path
         d="M 1.0729e-5,0 H 720.00001 V 540 H 1.0729e-5 Z"
         id="path932"
         style="clip-rule:evenodd" /></clipPath><clipPath
       clipPathUnits="userSpaceOnUse"
       id="clipPath946"><path
         d="M 1.0729e-5,0 H 720.00001 V 540 H 1.0729e-5 Z"
         id="path944"
         style="clip-rule:evenodd" /></clipPath><clipPath
       clipPathUnits="userSpaceOnUse"
       id="clipPath958"><path
         d="M 1.0729e-5,0 H 720.00001 V 540 H 1.0729e-5 Z"
         id="path956"
         style="clip-rule:evenodd" /></clipPath><clipPath
       clipPathUnits="userSpaceOnUse"
       id="clipPath970"><path
         d="M 1.0729e-5,0 H 720.00001 V 540 H 1.0729e-5 Z"
         id="path968"
         style="clip-rule:evenodd" /></clipPath><clipPath
       clipPathUnits="userSpaceOnUse"
       id="clipPath982"><path
         d="M 1.0729e-5,0 H 720.00001 V 540 H 1.0729e-5 Z"
         id="path980"
         style="clip-rule:evenodd" /></clipPath><clipPath
       clipPathUnits="userSpaceOnUse"
       id="clipPath994"><path
         d="M 1.0729e-5,0 H 720.00001 V 540 H 1.0729e-5 Z"
         id="path992"
         style="clip-rule:evenodd" /></clipPath><clipPath
       clipPathUnits="userSpaceOnUse"
       id="clipPath1006"><path
         d="M 1.0729e-5,0 H 720.00001 V 540 H 1.0729e-5 Z"
         id="path1004"
         style="clip-rule:evenodd" /></clipPath><clipPath
       clipPathUnits="userSpaceOnUse"
       id="clipPath1018"><path
         d="M 1.0729e-5,0 H 720.00001 V 540 H 1.0729e-5 Z"
         id="path1016"
         style="clip-rule:evenodd" /></clipPath><clipPath
       clipPathUnits="userSpaceOnUse"
       id="clipPath1030"><path
         d="M 1.0729e-5,0 H 720.00001 V 540 H 1.0729e-5 Z"
         id="path1028"
         style="clip-rule:evenodd" /></clipPath><clipPath
       clipPathUnits="userSpaceOnUse"
       id="clipPath1042"><path
         d="M 1.0729e-5,0 H 720.00001 V 540 H 1.0729e-5 Z"
         id="path1040"
         style="clip-rule:evenodd" /></clipPath><clipPath
       clipPathUnits="userSpaceOnUse"
       id="clipPath1054"><path
         d="M 1.0729e-5,0 H 720.00001 V 540 H 1.0729e-5 Z"
         id="path1052"
         style="clip-rule:evenodd" /></clipPath><clipPath
       clipPathUnits="userSpaceOnUse"
       id="clipPath1066"><path
         d="M 1.0729e-5,0 H 720.00001 V 540 H 1.0729e-5 Z"
         id="path1064"
         style="clip-rule:evenodd" /></clipPath><clipPath
       clipPathUnits="userSpaceOnUse"
       id="clipPath1078"><path
         d="M 1.0729e-5,0 H 720.00001 V 540 H 1.0729e-5 Z"
         id="path1076"
         style="clip-rule:evenodd" /></clipPath><clipPath
       clipPathUnits="userSpaceOnUse"
       id="clipPath1090"><path
         d="M 1.0729e-5,0 H 720.00001 V 540 H 1.0729e-5 Z"
         id="path1088"
         style="clip-rule:evenodd" /></clipPath><clipPath
       clipPathUnits="userSpaceOnUse"
       id="clipPath1102"><path
         d="M 1.0729e-5,0 H 720.00001 V 540 H 1.0729e-5 Z"
         id="path1100"
         style="clip-rule:evenodd" /></clipPath><clipPath
       clipPathUnits="userSpaceOnUse"
       id="clipPath1114"><path
         d="M 1.0729e-5,0 H 720.00001 V 540 H 1.0729e-5 Z"
         id="path1112"
         style="clip-rule:evenodd" /></clipPath><clipPath
       clipPathUnits="userSpaceOnUse"
       id="clipPath1126"><path
         d="M 1.0729e-5,0 H 720.00001 V 540 H 1.0729e-5 Z"
         id="path1124"
         style="clip-rule:evenodd" /></clipPath><clipPath
       clipPathUnits="userSpaceOnUse"
       id="clipPath1138"><path
         d="M 1.0729e-5,0 H 720.00001 V 540 H 1.0729e-5 Z"
         id="path1136"
         style="clip-rule:evenodd" /></clipPath><clipPath
       clipPathUnits="userSpaceOnUse"
       id="clipPath1150"><path
         d="M 1.0729e-5,0 H 720.00001 V 540 H 1.0729e-5 Z"
         id="path1148"
         style="clip-rule:evenodd" /></clipPath><clipPath
       clipPathUnits="userSpaceOnUse"
       id="clipPath1162"><path
         d="M 1.0729e-5,0 H 720.00001 V 540 H 1.0729e-5 Z"
         id="path1160"
         style="clip-rule:evenodd" /></clipPath><clipPath
       clipPathUnits="userSpaceOnUse"
       id="clipPath1174"><path
         d="M 1.0729e-5,0 H 720.00001 V 540 H 1.0729e-5 Z"
         id="path1172"
         style="clip-rule:evenodd" /></clipPath><clipPath
       clipPathUnits="userSpaceOnUse"
       id="clipPath1186"><path
         d="M 1.0729e-5,0 H 720.00001 V 540 H 1.0729e-5 Z"
         id="path1184"
         style="clip-rule:evenodd" /></clipPath><clipPath
       clipPathUnits="userSpaceOnUse"
       id="clipPath1198"><path
         d="M 1.0729e-5,0 H 720.00001 V 540 H 1.0729e-5 Z"
         id="path1196"
         style="clip-rule:evenodd" /></clipPath><clipPath
       clipPathUnits="userSpaceOnUse"
       id="clipPath1210"><path
         d="M 1.0729e-5,0 H 720.00001 V 540 H 1.0729e-5 Z"
         id="path1208"
         style="clip-rule:evenodd" /></clipPath><clipPath
       clipPathUnits="userSpaceOnUse"
       id="clipPath1222"><path
         d="M 1.0729e-5,0 H 720.00001 V 540 H 1.0729e-5 Z"
         id="path1220"
         style="clip-rule:evenodd" /></clipPath><clipPath
       clipPathUnits="userSpaceOnUse"
       id="clipPath1234"><path
         d="M 1.0729e-5,0 H 720.00001 V 540 H 1.0729e-5 Z"
         id="path1232"
         style="clip-rule:evenodd" /></clipPath><clipPath
       clipPathUnits="userSpaceOnUse"
       id="clipPath1246"><path
         d="M 1.0729e-5,0 H 720.00001 V 540 H 1.0729e-5 Z"
         id="path1244"
         style="clip-rule:evenodd" /></clipPath><clipPath
       clipPathUnits="userSpaceOnUse"
       id="clipPath1258"><path
         d="M 1.0729e-5,0 H 720.00001 V 540 H 1.0729e-5 Z"
         id="path1256"
         style="clip-rule:evenodd" /></clipPath><clipPath
       clipPathUnits="userSpaceOnUse"
       id="clipPath1270"><path
         d="M 1.0729e-5,0 H 720.00001 V 540 H 1.0729e-5 Z"
         id="path1268"
         style="clip-rule:evenodd" /></clipPath><clipPath
       clipPathUnits="userSpaceOnUse"
       id="clipPath1282"><path
         d="M 1.0729e-5,0 H 720.00001 V 540 H 1.0729e-5 Z"
         id="path1280"
         style="clip-rule:evenodd" /></clipPath><clipPath
       clipPathUnits="userSpaceOnUse"
       id="clipPath1294"><path
         d="M 1.0729e-5,0 H 720.00001 V 540 H 1.0729e-5 Z"
         id="path1292"
         style="clip-rule:evenodd" /></clipPath><clipPath
       clipPathUnits="userSpaceOnUse"
       id="clipPath1306"><path
         d="M 1.0729e-5,0 H 720.00001 V 540 H 1.0729e-5 Z"
         id="path1304"
         style="clip-rule:evenodd" /></clipPath><clipPath
       clipPathUnits="userSpaceOnUse"
       id="clipPath1318"><path
         d="M 1.0729e-5,0 H 720.00001 V 540 H 1.0729e-5 Z"
         id="path1316"
         style="clip-rule:evenodd" /></clipPath><clipPath
       clipPathUnits="userSpaceOnUse"
       id="clipPath1330"><path
         d="M 1.0729e-5,0 H 720.00001 V 540 H 1.0729e-5 Z"
         id="path1328"
         style="clip-rule:evenodd" /></clipPath></defs><g
     transform="matrix(1.3492062,0,0,1.3492062,18.536953,1.3091336)"
     id="g1509"><path
       d="M 56.886844,93.025011 H 129.52684 L 114.99351,116.38501 H 71.420177 Z"
       style="fill:none;stroke:#2f528f;stroke-width:1.27999997;stroke-linecap:butt;stroke-linejoin:miter;stroke-miterlimit:10;stroke-dasharray:none;stroke-opacity:1"
       id="path346" /><g
       id="g348"
       transform="matrix(1.3333333,0,0,-1.3333333,-87.593152,517.025)"><g
         id="g350"
         clip-path="url(#clipPath354)"><text
   transform="matrix(1,0,0,-1,127.85,305.42)"
   style="font-variant:normal;font-weight:normal;font-size:11.03999996px;font-family:Calibri;-inkscape-font-specification:Calibri;writing-mode:lr-tb;fill:#000000;fill-opacity:1;fill-rule:nonzero;stroke:none"
   id="text358"><tspan
     x="0 4.66992 10.0464"
     y="0"
     id="tspan356">LTE</tspan></text>


</g></g><path
       d="m 93.206843,93.025011 h 36.319997 v -13.92 H 93.206843 Z"
       style="fill:none;stroke:#2f528f;stroke-width:1.27999997;stroke-linecap:butt;stroke-linejoin:miter;stroke-miterlimit:10;stroke-dasharray:none;stroke-opacity:1"
       id="path360" /><g
       id="g362"
       transform="matrix(1.3333333,0,0,-1.3333333,-87.593152,517.025)"><g
         id="g364"
         clip-path="url(#clipPath368)"><text
   transform="matrix(1,0,0,-1,143.57,319.42)"
   style="font-variant:normal;font-weight:normal;font-size:11.03999996px;font-family:Calibri;-inkscape-font-specification:Calibri;writing-mode:lr-tb;fill:#000000;fill-opacity:1;fill-rule:nonzero;stroke:none"
   id="text372"><tspan
     x="0 5.6399798"
     y="0"
     id="tspan370">20</tspan></text>


</g></g><path
       d="M 47.686845,137.10501 H 140.00684 V 48.785012 H 47.686845 Z"
       style="fill:none;stroke:#2f528f;stroke-width:2.71999979;stroke-linecap:butt;stroke-linejoin:miter;stroke-miterlimit:10;stroke-dasharray:none;stroke-opacity:1"
       id="path374" /><path
       d="m 24.086845,15.905013 c 0,-5.386667 23.133333,-9.7600002 51.679999,-9.7600002 28.546666,0 51.679996,4.3733332 51.679996,9.7600002 0,5.386666 -23.13333,9.759999 -51.679996,9.759999 -28.546666,0 -51.679999,-4.373333 -51.679999,-9.759999 z"
       style="fill:none;stroke:#2f528f;stroke-width:1.27999997;stroke-linecap:butt;stroke-linejoin:miter;stroke-miterlimit:10;stroke-dasharray:none;stroke-opacity:1"
       id="path376" /><g
       id="g378"
       transform="matrix(1.3333333,0,0,-1.3333333,-87.593152,517.025)"><g
         id="g380"
         clip-path="url(#clipPath384)"><text
   transform="matrix(1,0,0,-1,105.26,371.71)"
   style="font-variant:normal;font-weight:normal;font-size:12px;font-family:Calibri;-inkscape-font-specification:Calibri;writing-mode:lr-tb;fill:#000000;fill-opacity:1;fill-rule:nonzero;stroke:none"
   id="text388"><tspan
     x="0 6.348 9.1079998 13.908 19.884001 22.643999 25.416 28.176001"
     y="0"
     id="tspan386">pixel in</tspan></text>


</g></g><path
       d="m 76.886844,25.745012 v 60.826665 h -2.08 V 25.745012 Z m 2.96,59.493332 -4,8 -4,-8 z"
       style="fill:#4472c4;fill-opacity:1;fill-rule:nonzero;stroke:none;stroke-width:1.33333325"
       id="path390" /><path
       d="m 57.046844,203.26501 h 72.639996 l -14.53333,23.2 H 71.580177 Z"
       style="fill:none;stroke:#2f528f;stroke-width:1.27999997;stroke-linecap:butt;stroke-linejoin:miter;stroke-miterlimit:10;stroke-dasharray:none;stroke-opacity:1"
       id="path392" /><g
       id="g394"
       transform="matrix(1.3333333,0,0,-1.3333333,-87.593152,517.025)"><g
         id="g396"
         clip-path="url(#clipPath400)"><text
   transform="matrix(1,0,0,-1,121.49,222.82)"
   style="font-variant:normal;font-weight:normal;font-size:11.03999996px;font-family:Calibri;-inkscape-font-specification:Calibri;writing-mode:lr-tb;fill:#000000;fill-opacity:1;fill-rule:nonzero;stroke:none"
   id="text404"><tspan
     x="0 4.66992 11.7576 17.134081 22.77552"
     y="0"
     id="tspan402">LUT55</tspan></text>


</g></g><path
       d="m 100.40684,203.26501 h 21.92 v -14.08 h -21.92 z"
       style="fill:none;stroke:#2f528f;stroke-width:1.27999997;stroke-linecap:butt;stroke-linejoin:miter;stroke-miterlimit:10;stroke-dasharray:none;stroke-opacity:1"
       id="path406" /><g
       id="g408"
       transform="matrix(1.3333333,0,0,-1.3333333,-87.593152,517.025)"><g
         id="g410"
         clip-path="url(#clipPath414)"><text
   transform="matrix(1,0,0,-1,146.35,236.78)"
   style="font-variant:normal;font-weight:normal;font-size:11.03999996px;font-family:Calibri;-inkscape-font-specification:Calibri;writing-mode:lr-tb;fill:#000000;fill-opacity:1;fill-rule:nonzero;stroke:none"
   id="text418"><tspan
     x="0"
     y="0"
     id="tspan416">0</tspan></text>


</g></g><path
       d="m 47.846845,247.18501 h 92.319995 v -80.16 H 47.846845 Z"
       style="fill:none;stroke:#2f528f;stroke-width:2.71999979;stroke-linecap:butt;stroke-linejoin:miter;stroke-miterlimit:10;stroke-dasharray:none;stroke-opacity:1"
       id="path420" /><path
       d="m 178.16684,93.185011 h 72.8 l -14.56,23.359999 h -43.68 z"
       style="fill:none;stroke:#2f528f;stroke-width:1.27999997;stroke-linecap:butt;stroke-linejoin:miter;stroke-miterlimit:10;stroke-dasharray:none;stroke-opacity:1"
       id="path422" /><g
       id="g424"
       transform="matrix(1.3333333,0,0,-1.3333333,-87.593152,517.025)"><g
         id="g426"
         clip-path="url(#clipPath430)"><text
   transform="matrix(1,0,0,-1,217.54,305.33)"
   style="font-variant:normal;font-weight:normal;font-size:11.06400013px;font-family:Calibri;-inkscape-font-specification:Calibri;writing-mode:lr-tb;fill:#000000;fill-opacity:1;fill-rule:nonzero;stroke:none"
   id="text434"><tspan
     x="0 5.0451841 12.148272"
     y="0"
     id="tspan432">SUB</tspan></text>


</g></g><path
       d="m 214.48684,93.185011 h 36.48 v -13.92 h -36.48 z"
       style="fill:none;stroke:#2f528f;stroke-width:1.27999997;stroke-linecap:butt;stroke-linejoin:miter;stroke-miterlimit:10;stroke-dasharray:none;stroke-opacity:1"
       id="path436" /><g
       id="g438"
       transform="matrix(1.3333333,0,0,-1.3333333,-87.593152,517.025)"><g
         id="g440"
         clip-path="url(#clipPath444)"><text
   transform="matrix(1,0,0,-1,234.58,319.3)"
   style="font-variant:normal;font-weight:normal;font-size:11.03999996px;font-family:Calibri;-inkscape-font-specification:Calibri;writing-mode:lr-tb;fill:#000000;fill-opacity:1;fill-rule:nonzero;stroke:none"
   id="text448"><tspan
     x="0 5.6399798"
     y="0"
     id="tspan446">20</tspan></text>


</g></g><path
       d="m 168.96684,137.26501 h 92.32 V 48.785012 h -92.32 z"
       style="fill:none;stroke:#2f528f;stroke-width:2.71999979;stroke-linecap:butt;stroke-linejoin:miter;stroke-miterlimit:10;stroke-dasharray:none;stroke-opacity:1"
       id="path450" /><path
       d="m 178.32684,203.42501 h 72.8 l -14.56,23.2 h -43.68 z"
       style="fill:none;stroke:#2f528f;stroke-width:1.27999997;stroke-linecap:butt;stroke-linejoin:miter;stroke-miterlimit:10;stroke-dasharray:none;stroke-opacity:1"
       id="path452" /><g
       id="g454"
       transform="matrix(1.3333333,0,0,-1.3333333,-87.593152,517.025)"><g
         id="g456"
         clip-path="url(#clipPath460)"><text
   transform="matrix(1,0,0,-1,215.59,222.7)"
   style="font-variant:normal;font-weight:normal;font-size:11.03999996px;font-family:Calibri;-inkscape-font-specification:Calibri;writing-mode:lr-tb;fill:#000000;fill-opacity:1;fill-rule:nonzero;stroke:none"
   id="text464"><tspan
     x="0 9.4723196 16.559999"
     y="0"
     id="tspan462">MUX</tspan></text>


</g></g><path
       d="m 169.12684,247.34501 h 92.32 v -80.16 h -92.32 z"
       style="fill:none;stroke:#2f528f;stroke-width:2.71999979;stroke-linecap:butt;stroke-linejoin:miter;stroke-miterlimit:10;stroke-dasharray:none;stroke-opacity:1"
       id="path466" /><path
       d="m 73.046844,68.225011 c 0,-1.32 1.146667,-2.4 2.56,-2.4 1.413333,0 2.56,1.08 2.56,2.4 0,1.32 -1.146667,2.4 -2.56,2.4 -1.413333,0 -2.56,-1.08 -2.56,-2.4 z"
       style="fill:#4472c4;fill-opacity:1;fill-rule:evenodd;stroke:none;stroke-width:1.33333325"
       id="path468" /><path
       d="m 73.046844,68.225011 c 0,-1.32 1.146667,-2.4 2.56,-2.4 1.413333,0 2.56,1.08 2.56,2.4 0,1.32 -1.146667,2.4 -2.56,2.4 -1.413333,0 -2.56,-1.08 -2.56,-2.4 z"
       style="fill:none;stroke:#2f528f;stroke-width:1.27999997;stroke-linecap:butt;stroke-linejoin:miter;stroke-miterlimit:10;stroke-dasharray:none;stroke-opacity:1"
       id="path470" /><path
       d="m 190.48684,93.025011 c 0,-1.32 1.14667,-2.4 2.56,-2.4 1.41333,0 2.56,1.08 2.56,2.4 0,1.32 -1.14667,2.4 -2.56,2.4 -1.41333,0 -2.56,-1.08 -2.56,-2.4 z"
       style="fill:#4472c4;fill-opacity:1;fill-rule:evenodd;stroke:none;stroke-width:1.33333325"
       id="path472" /><path
       d="m 190.48684,93.025011 c 0,-1.32 1.14667,-2.4 2.56,-2.4 1.41333,0 2.56,1.08 2.56,2.4 0,1.32 -1.14667,2.4 -2.56,2.4 -1.41333,0 -2.56,-1.08 -2.56,-2.4 z"
       style="fill:none;stroke:#2f528f;stroke-width:1.27999997;stroke-linecap:butt;stroke-linejoin:miter;stroke-miterlimit:10;stroke-dasharray:none;stroke-opacity:1"
       id="path474" /><path
       d="M 78.246844,67.265011 H 194.14017 v 16.786666 h -2.08 V 68.305011 l 1.04,1.04 H 78.246844 Z m 118.853326,15.453333 -4,8 -4,-8 z"
       style="fill:#4472c4;fill-opacity:1;fill-rule:nonzero;stroke:none;stroke-width:1.33333325"
       id="path476" /><path
       d="m 171.44684,68.225011 c 0,-1.32 1.14667,-2.4 2.56,-2.4 1.41333,0 2.56,1.08 2.56,2.4 0,1.32 -1.14667,2.4 -2.56,2.4 -1.41333,0 -2.56,-1.08 -2.56,-2.4 z"
       style="fill:#4472c4;fill-opacity:1;fill-rule:evenodd;stroke:none;stroke-width:1.33333325"
       id="path478" /><path
       d="m 171.44684,68.225011 c 0,-1.32 1.14667,-2.4 2.56,-2.4 1.41333,0 2.56,1.08 2.56,2.4 0,1.32 -1.14667,2.4 -2.56,2.4 -1.41333,0 -2.56,-1.08 -2.56,-2.4 z"
       style="fill:none;stroke:#2f528f;stroke-width:1.27999997;stroke-linecap:butt;stroke-linejoin:miter;stroke-miterlimit:10;stroke-dasharray:none;stroke-opacity:1"
       id="path480" /><path
       d="m 93.87351,115.58501 0.16,80.94666 h -1.333333 l -0.16,-80.94666 z m 3.493333,79.6 -3.986666,8.01333 -4.013333,-7.98667 z"
       style="fill:#4472c4;fill-opacity:1;fill-rule:nonzero;stroke:none;stroke-width:1.33333325"
       id="path482" /><path
       d="m 62.966844,203.26501 h 21.76 v -14.08 h -21.76 z"
       style="fill:none;stroke:#2f528f;stroke-width:1.27999997;stroke-linecap:butt;stroke-linejoin:miter;stroke-miterlimit:10;stroke-dasharray:none;stroke-opacity:1"
       id="path484" /><g
       id="g486"
       transform="matrix(1.3333333,0,0,-1.3333333,-87.593152,517.025)"><g
         id="g488"
         clip-path="url(#clipPath492)"><text
   transform="matrix(1,0,0,-1,118.22,236.78)"
   style="font-variant:normal;font-weight:normal;font-size:11.03999996px;font-family:Calibri;-inkscape-font-specification:Calibri;writing-mode:lr-tb;fill:#000000;fill-opacity:1;fill-rule:nonzero;stroke:none"
   id="text496"><tspan
     x="0"
     y="0"
     id="tspan494">0</tspan></text>


</g></g><g
       id="g498"
       transform="matrix(1.3333333,0,0,-1.3333333,-87.593152,517.025)"><g
         id="g500"
         clip-path="url(#clipPath504)"><path
           d="m 225.84,300.3 v -33.29 h 14.41 l -0.78,0.78 v -27.5 h 1.56 v 28.28 h -14.41 l 0.78,-0.78 v 32.51 z m 11.41,-59.01 3,-6 3,6 z"
           style="fill:#4472c4;fill-opacity:1;fill-rule:nonzero;stroke:none"
           id="path506" /></g></g><g
       id="g508"
       transform="matrix(1.3333333,0,0,-1.3333333,-87.593152,517.025)"><g
         id="g510"
         clip-path="url(#clipPath514)"><path
           d="m 195.48,334.74 v -64.82 h 17.06 l -0.78,0.78 v -30.37 h 1.56 v 31.15 h -17.06 l 0.78,-0.78 v 64.04 z m 14.06,-93.41 3,-6 3,6 z"
           style="fill:#4472c4;fill-opacity:1;fill-rule:nonzero;stroke:none"
           id="path516" /></g></g><path
       d="m 215.60684,226.70501 v 35.8 h -2.08 v -35.8 z m 2.96,34.46666 -4,8 -4,-8 z"
       style="fill:#4472c4;fill-opacity:1;fill-rule:nonzero;stroke:none;stroke-width:1.33333325"
       id="path518" /><g
       id="g520"
       transform="matrix(1.3333333,0,0,-1.3333333,-87.593152,517.025)"><g
         id="g522"
         clip-path="url(#clipPath526)"><text
   transform="matrix(1,0,0,-1,105.53,342.46)"
   style="font-variant:normal;font-weight:normal;font-size:8.03999996px;font-family:Calibri;-inkscape-font-specification:Calibri;writing-mode:lr-tb;fill:#000000;fill-opacity:1;fill-rule:nonzero;stroke:none"
   id="text530"><tspan
     x="0 3.14364 7.2199202 9.8409595"
     y="0"
     id="tspan528">s3t0</tspan></text>


</g></g><g
       id="g532"
       transform="matrix(1.3333333,0,0,-1.3333333,-87.593152,517.025)"><g
         id="g534"
         clip-path="url(#clipPath538)"><text
   transform="matrix(1,0,0,-1,137.59,253.61)"
   style="font-variant:normal;font-weight:normal;font-size:8.03999996px;font-family:Calibri;-inkscape-font-specification:Calibri;writing-mode:lr-tb;fill:#000000;fill-opacity:1;fill-rule:nonzero;stroke:none"
   id="text542"><tspan
     x="0 3.14364 7.2199202 9.8409595 13.91724"
     y="0"
     id="tspan540">s3t0b</tspan></text>


</g></g><g
       id="g544"
       transform="matrix(1.3333333,0,0,-1.3333333,-87.593152,517.025)"><g
         id="g546"
         clip-path="url(#clipPath550)"><text
   transform="matrix(1,0,0,-1,137.57,288.22)"
   style="font-variant:normal;font-weight:normal;font-size:8.06400013px;font-family:Calibri;-inkscape-font-specification:Calibri;writing-mode:lr-tb;fill:#000000;fill-opacity:1;fill-rule:nonzero;stroke:none"
   id="text554"><tspan
     x="0 3.1207681 7.2092161 9.8380804 13.926528"
     y="0"
     id="tspan552">s1t0b</tspan></text>


</g></g><g
       id="g556"
       transform="matrix(1.3333333,0,0,-1.3333333,-87.593152,517.025)"><g
         id="g558"
         clip-path="url(#clipPath562)"><text
   transform="matrix(1,0,0,-1,153.94,338.04)"
   style="font-variant:normal;font-weight:normal;font-size:8.03999996px;font-family:Calibri;-inkscape-font-specification:Calibri;writing-mode:lr-tb;fill:#000000;fill-opacity:1;fill-rule:nonzero;stroke:none"
   id="text566"><tspan
     x="0 3.14364 7.2199202 9.8409595"
     y="0"
     id="tspan564">s0t0</tspan></text>


</g></g><g
       id="g568"
       transform="matrix(1.3333333,0,0,-1.3333333,-87.593152,517.025)"><g
         id="g570"
         clip-path="url(#clipPath574)"><text
   transform="matrix(1,0,0,-1,194.54,340.82)"
   style="font-variant:normal;font-weight:normal;font-size:8.03999996px;font-family:Calibri;-inkscape-font-specification:Calibri;writing-mode:lr-tb;fill:#000000;fill-opacity:1;fill-rule:nonzero;stroke:none"
   id="text578"><tspan
     x="0 3.14364 7.2199202 9.8409595"
     y="0"
     id="tspan576">s2t0</tspan></text>


</g></g><g
       id="g580"
       transform="matrix(1.3333333,0,0,-1.3333333,-87.593152,517.025)"><g
         id="g582"
         clip-path="url(#clipPath586)"><text
   transform="matrix(1,0,0,-1,197.86,288.36)"
   style="font-variant:normal;font-weight:normal;font-size:8.03999996px;font-family:Calibri;-inkscape-font-specification:Calibri;writing-mode:lr-tb;fill:#000000;fill-opacity:1;fill-rule:nonzero;stroke:none"
   id="text590"><tspan
     x="0 3.14364 7.2199202 9.8409595"
     y="0"
     id="tspan588">s1t0</tspan></text>


</g></g><g
       id="g592"
       transform="matrix(1.3333333,0,0,-1.3333333,-87.593152,517.025)"><g
         id="g594"
         clip-path="url(#clipPath598)"><text
   transform="matrix(1,0,0,-1,228.82,288.02)"
   style="font-variant:normal;font-weight:normal;font-size:8.03999996px;font-family:Calibri;-inkscape-font-specification:Calibri;writing-mode:lr-tb;fill:#000000;fill-opacity:1;fill-rule:nonzero;stroke:none"
   id="text602"><tspan
     x="0 3.14364 7.2199202 9.8409595"
     y="0"
     id="tspan600">s1t1</tspan></text>


</g></g><g
       id="g604"
       transform="matrix(1.3333333,0,0,-1.3333333,-87.593152,517.025)"><g
         id="g606"
         clip-path="url(#clipPath610)"><path
           d="m 136.22,217.82 v -6.06 l -0.5,0.5 h 45.5 l -0.5,-0.5 v 15.18 h 19.18 v -1 h -18.68 l 0.5,0.5 v -15.18 h -46.5 v 6.56 z m 62.68,11.62 6,-3 -6,-3 z"
           style="fill:#4472c4;fill-opacity:1;fill-rule:nonzero;stroke:none"
           id="path612" /></g></g><path
       d="m 162.80684,278.70501 c 0,-5.34667 23.17333,-9.68 51.76,-9.68 28.58667,0 51.76,4.33333 51.76,9.68 0,5.34666 -23.17333,9.68 -51.76,9.68 -28.58667,0 -51.76,-4.33334 -51.76,-9.68 z"
       style="fill:none;stroke:#2f528f;stroke-width:1.27999997;stroke-linecap:butt;stroke-linejoin:miter;stroke-miterlimit:10;stroke-dasharray:none;stroke-opacity:1"
       id="path614" /><g
       id="g616"
       transform="matrix(1.3333333,0,0,-1.3333333,-87.593152,517.025)"><g
         id="g618"
         clip-path="url(#clipPath622)"><text
   transform="matrix(1,0,0,-1,205.49,174.53)"
   style="font-variant:normal;font-weight:normal;font-size:12px;font-family:Calibri;-inkscape-font-specification:Calibri;writing-mode:lr-tb;fill:#000000;fill-opacity:1;fill-rule:nonzero;stroke:none"
   id="text626"><tspan
     x="0 6.348 9.1079998 13.908 19.884001 22.643999 25.416 31.74 38.124001"
     y="0"
     id="tspan624">pixel out</tspan></text>


</g></g><g
       id="g1276"
       transform="matrix(1.3333333,0,0,-1.3333333,-87.593152,517.025)"><g
         id="g1278"
         clip-path="url(#clipPath1282)"><text
   transform="matrix(1,0,0,-1,67.968,309.84)"
   style="font-variant:normal;font-weight:normal;font-size:10.56000042px;font-family:Calibri;-inkscape-font-specification:Calibri;writing-mode:lr-tb;fill:#000000;fill-opacity:1;fill-rule:nonzero;stroke:none"
   id="text1286"><tspan
     x="0 5.7340798 11.2992 18.8496 21.120001"
     y="0"
     id="tspan1284">Row 1</tspan></text>


</g></g><g
       id="g1288"
       transform="matrix(1.3333333,0,0,-1.3333333,-87.593152,517.025)"><g
         id="g1290"
         clip-path="url(#clipPath1294)"><text
   transform="matrix(1,0,0,-1,66.456,232.94)"
   style="font-variant:normal;font-weight:normal;font-size:10.56000042px;font-family:Calibri;-inkscape-font-specification:Calibri;writing-mode:lr-tb;fill:#000000;fill-opacity:1;fill-rule:nonzero;stroke:none"
   id="text1298"><tspan
     x="0 5.7340798 11.2992 18.8496 21.120001"
     y="0"
     id="tspan1296">Row 2</tspan></text>


</g></g><g
       id="g1300"
       transform="matrix(1.3333333,0,0,-1.3333333,-87.593152,517.025)"><g
         id="g1302"
         clip-path="url(#clipPath1306)"><text
   transform="matrix(1,0,0,-1,127.68,356.38)"
   style="font-variant:normal;font-weight:normal;font-size:10.56000042px;font-family:Calibri;-inkscape-font-specification:Calibri;writing-mode:lr-tb;fill:#000000;fill-opacity:1;fill-rule:nonzero;stroke:none"
   id="text1310"><tspan
     x="0 5.62848 11.16192 13.59072 15.84"
     y="0"
     id="tspan1308">Col 1</tspan></text>


</g></g><g
       id="g1312"
       transform="matrix(1.3333333,0,0,-1.3333333,-87.593152,517.025)"><g
         id="g1314"
         clip-path="url(#clipPath1318)"><text
   transform="matrix(1,0,0,-1,212.47,357.91)"
   style="font-variant:normal;font-weight:normal;font-size:10.56000042px;font-family:Calibri;-inkscape-font-specification:Calibri;writing-mode:lr-tb;fill:#000000;fill-opacity:1;fill-rule:nonzero;stroke:none"
   id="text1322"><tspan
     x="0 5.62848 11.16192 13.59072 15.84"
     y="0"
     id="tspan1320">Col 2</tspan></text>


</g></g></g></svg>